<?xml version="1.0" encoding="UTF-8"?>
<svg width="1024" height="1024" viewBox="0 0 1024 1024" xmlns="http://www.w3.org/2000/svg">
  <!-- Background -->
  <rect width="1024" height="1024" fill="#FDF6E3" rx="180"/>

  <!-- Confetti falling - variant 4 (balanced distribution) -->

  <!-- Top row -->
  <path d="M 220 180 L 265 225 L 175 225 Z" fill="#D33682" transform="rotate(30 220 203)"/>
  <circle cx="480" cy="195" r="31" fill="#859900" transform="rotate(-20 480 195)"/>
  <rect x="680" y="170" width="54" height="38" fill="#2AA198" rx="4" transform="rotate(25 707 189)"/>
  <circle cx="860" cy="185" r="29" fill="#B58900" transform="rotate(-15 860 185)"/>

  <!-- Second row -->
  <circle cx="180" cy="360" r="43" fill="#CB4B16" transform="rotate(35 180 360)"/>
  <path d="M 400 350 L 415 390 L 460 395 L 425 425 L 435 470 L 400 440 L 365 470 L 375 425 L 340 395 L 385 390 Z" fill="#6C71C4" transform="rotate(-30 400 410)"/>
  <rect x="600" y="330" width="64" height="46" fill="#DC322F" rx="5" transform="rotate(40 632 353)"/>
  <path d="M 820 360 L 865 405 L 775 405 Z" fill="#2AA198" transform="rotate(-25 820 382)"/>

  <!-- Third row -->
  <rect x="220" y="510" width="58" height="42" fill="#B58900" rx="5" transform="rotate(-35 249 531)"/>
  <circle cx="460" cy="540" r="47" fill="#D33682" transform="rotate(20 460 540)"/>
  <path d="M 680 520 L 730 565 L 630 565 Z" fill="#859900" transform="rotate(30 680 542)"/>
  <circle cx="840" cy="550" r="41" fill="#6C71C4" transform="rotate(-20 840 550)"/>

  <!-- Fourth row -->
  <path d="M 200 700 L 215 740 L 260 745 L 225 775 L 235 820 L 200 790 L 165 820 L 175 775 L 140 745 L 185 740 Z" fill="#2AA198" transform="rotate(25 200 760)"/>
  <circle cx="440" cy="710" r="45" fill="#CB4B16" transform="rotate(-30 440 710)"/>
  <rect x="630" y="690" width="62" height="44" fill="#859900" rx="5" transform="rotate(35 661 712)"/>
  <path d="M 820 710 L 870 755 L 770 755 Z" fill="#DC322F" transform="rotate(-25 820 732)"/>

  <!-- Bottom row -->
  <circle cx="260" cy="870" r="53" fill="#6C71C4" transform="rotate(15 260 870)"/>
  <rect x="460" y="850" width="76" height="54" fill="#D33682" rx="5" transform="rotate(-35 498 877)"/>
  <path d="M 700 880 L 715 920 L 760 925 L 725 955 L 735 1000 L 700 970 L 665 1000 L 675 955 L 640 925 L 685 920 Z" fill="#B58900" transform="rotate(30 700 940)"/>
  <circle cx="860" cy="880" r="50" fill="#CB4B16" transform="rotate(-20 860 880)"/>
</svg>
