<?xml version="1.0" encoding="UTF-8"?>
<svg width="1024" height="1024" viewBox="0 0 1024 1024" xmlns="http://www.w3.org/2000/svg">
  <!-- Background -->
  <rect width="1024" height="1024" fill="#FDF6E3" rx="180"/>

  <!-- Single large vertical meter bar (centered with spacing) -->
  <g transform="translate(512, 512)">
    <!-- Meter background/border -->
    <rect x="-210" y="-350" width="420" height="700" fill="#073642" rx="40"/>

    <!-- Filled blocks from bottom up -->
    <!-- Bottom blocks (green) - 7 blocks for ~60% -->
    <rect x="-185" y="290" width="370" height="55" fill="#859900" rx="8"/>
    <rect x="-185" y="225" width="370" height="55" fill="#859900" rx="8"/>
    <rect x="-185" y="160" width="370" height="55" fill="#859900" rx="8"/>
    <rect x="-185" y="95" width="370" height="55" fill="#859900" rx="8"/>
    <rect x="-185" y="30" width="370" height="55" fill="#859900" rx="8"/>
    <rect x="-185" y="-35" width="370" height="55" fill="#859900" rx="8"/>
    <rect x="-185" y="-100" width="370" height="55" fill="#859900" rx="8"/>

    <!-- Middle blocks (violet) - 2 blocks -->
    <rect x="-185" y="-165" width="370" height="55" fill="#6C71C4" rx="8"/>
    <rect x="-185" y="-230" width="370" height="55" fill="#6C71C4" rx="8"/>

    <!-- Top blocks (magenta) - 2 blocks -->
    <rect x="-185" y="-295" width="370" height="55" fill="#D33682" rx="8"/>
    <rect x="-185" y="-330" width="370" height="25" fill="#D33682" rx="8"/>
  </g>
</svg>
