<?xml version="1.0" encoding="UTF-8"?>
<svg width="1024" height="1024" viewBox="0 0 1024 1024" xmlns="http://www.w3.org/2000/svg">
  <!-- Background -->
  <rect width="1024" height="1024" fill="#FDF6E3" rx="180"/>

  <!-- Single large vertical meter bar (centered, taller) -->
  <g transform="translate(512, 512)">
    <!-- Meter background/border -->
    <rect x="-210" y="-460" width="420" height="920" fill="#073642" rx="40"/>

    <!-- Filled blocks from bottom up -->
    <!-- Bottom blocks (green) -->
    <rect x="-185" y="380" width="370" height="60" fill="#859900" rx="8"/>
    <rect x="-185" y="305" width="370" height="60" fill="#859900" rx="8"/>
    <rect x="-185" y="230" width="370" height="60" fill="#859900" rx="8"/>
    <rect x="-185" y="155" width="370" height="60" fill="#859900" rx="8"/>
    <rect x="-185" y="80" width="370" height="60" fill="#859900" rx="8"/>
    <rect x="-185" y="5" width="370" height="60" fill="#859900" rx="8"/>
    <rect x="-185" y="-70" width="370" height="60" fill="#859900" rx="8"/>
    <rect x="-185" y="-145" width="370" height="60" fill="#859900" rx="8"/>
    <rect x="-185" y="-220" width="370" height="60" fill="#859900" rx="8"/>

    <!-- Middle blocks (orange) -->
    <rect x="-185" y="-295" width="370" height="60" fill="#CB4B16" rx="8"/>
    <rect x="-185" y="-370" width="370" height="60" fill="#CB4B16" rx="8"/>

    <!-- Top blocks (empty/dark) -->
    <rect x="-185" y="-430" width="370" height="50" fill="#002B36" rx="8"/>
  </g>
</svg>
